<?xml version="1.0" encoding="utf-8"?>
<!-- Generator: Adobe Illustrator 19.2.1, SVG Export Plug-In . SVG Version: 6.00 Build 0)  -->
<svg version="1.1" id="layer" xmlns="http://www.w3.org/2000/svg" xmlns:xlink="http://www.w3.org/1999/xlink" x="0px" y="0px"
	 viewBox="0 0 652 652" style="enable-background:new 0 0 652 652;" xml:space="preserve">
<style type="text/css">
	.st0{fill:#212121;}
</style>
<g>
	<g>
		<path class="st0" d="M53.2,356.8c15.4,0,26.9-7.1,30.9-22.5l-15.4-4.5c-3.3,9.2-6.9,13.3-14.2,13.3c-7.4,0-11.1-3.9-11.1-11.6
			c0-4,1-9.3,2.4-14.1c3.4-12.2,8.1-18,15.9-18c8.1,0,10.5,6.1,8.7,14.6h16.6l7.2-27.3H82.8l-5.1,8.1c-2.4-5-8.5-9.6-19.4-9.6
			c-22,0-36.6,19-36.6,42.6C21.8,346.6,33.9,356.8,53.2,356.8z M125.2,285.5c-2.8,0.7-7.6,1.4-13.2,1.4H99.2l-2.8,10.6h3.4
			c1.5,0,1.9,0.9,1,3.9l-14.7,54h19.9c6.7-24.9,12-39.1,19-39.1c2.1,0,3.6,1.1,3.6,3.3c0,4.5-7.5,20.1-7.5,26.9
			c0,7.6,4.5,10.3,12.6,10.3c3.6,0,7.5-0.4,11.1-1.5l2.7-10.5c-0.9,0.3-1.9,0.5-2.8,0.5c-1.4,0-2.3-0.6-2.3-2.4
			c0-4.4,7.9-20.4,7.9-28.6c0-7.2-5.9-11.2-13.7-11.2c-8.1,0-14.4,3.6-19.3,10.5L125.2,285.5z M177,345.2c-4.5,0-6.6-2.7-6.6-6.6
			c0-6.1,4-23.7,12-23.7c4.4,0,6.5,2.7,6.5,6.5C188.9,327.4,185,345.2,177,345.2z M177.8,356.8c17.2,0,30-13.1,30-30.3
			c0-15.3-11.1-23.3-26.6-23.3c-17.4,0-29.6,12.7-29.6,29.7C151.6,348.3,162.4,356.8,177.8,356.8z M267.7,343.9
			c-3.3,0-4.7-1.4-4.7-3.6c0-2.6,1.2-6.7,2.6-11.1l6.9-24.6h-20.1l-6.4,22.9c-2.1,7.6-6.3,16.3-11.7,16.3c-2.3,0-3.9-1.2-3.9-3.5
			c0-2.1,1-5.7,2-9.2l8-27.8c-2.8,0.7-9.2,1.2-14.7,1.2h-11.5l-2.8,10.6h3.9c1.5,0,1.6,2.2,1.1,3.9l-4.5,14.5
			c-1.5,4.5-2.8,8.5-2.8,12.1c0,7.1,5.9,11.1,13.7,11.1c9,0,16.9-4,22.5-12.1v0.4c0,5.9,3.9,11.7,14.9,11.7c23.2,0,38-23.7,38-41
			c0-7.7-4.5-12.6-11.6-12.6c-6.5,0-11.1,4.5-11.1,11.7c0,5.9,3.3,9.1,8.1,10.1C279.5,337.2,274.4,343.9,267.7,343.9z M334,285.5
			c-2.8,0.7-7.6,1.4-13.2,1.4h-12.7l-2.8,10.6h3.4c1.5,0,1.9,0.9,1,3.9l-14.7,54.1h19.9c6.7-24.9,12-39.1,19-39.1
			c2.1,0,3.6,1.1,3.6,3.3c0,4.5-7.5,20.1-7.5,26.9c0,7.6,4.5,10.3,12.6,10.3c3.6,0,7.5-0.4,11.1-1.5l2.7-10.5
			c-0.9,0.3-1.9,0.5-2.8,0.5c-1.4,0-2.3-0.6-2.3-2.4c0-4.4,7.9-20.4,7.9-28.6c0-7.2-5.9-11.2-13.7-11.2c-8.1,0-14.4,3.6-19.4,10.5
			L334,285.5z M388,345.2c-4.5,0-6.6-2.7-6.6-6.6c0-6.1,4-23.7,12-23.7c4.4,0,6.5,2.7,6.5,6.5C399.8,327.4,395.9,345.2,388,345.2z
			 M388.7,356.8c17.2,0,30-13.1,30-30.3c0-15.3-11.1-23.3-26.6-23.3c-17.4,0-29.6,12.7-29.6,29.7
			C362.5,348.3,373.2,356.8,388.7,356.8z M455.3,346.4c0,6.7,4.5,10.3,12.9,10.3c3.9,0,7-0.6,10.5-1.5l2.6-10.3
			c-0.9,0.2-1.9,0.4-2.7,0.4c-1.5,0-2.5-0.5-2.5-2.5c0-1.2,0.6-3.2,1.5-5.6l8.9-33.9c-2.6,0.7-6.7,1.2-11.7,1.2h-8.7
			c-6.9,25.6-11.9,39.3-18.9,39.3c-2.4,0-3.9-1.2-3.9-3.5c0-2.1,1-5.7,2-9.2l8-27.8c-2.8,0.7-9.2,1.2-14.7,1.2h-11.5l-2.8,10.6h3.9
			c1.5,0,1.6,2.2,1.1,3.9l-4.5,14.5c-1.5,4.5-2.8,8.5-2.8,12.1c0,7.1,5.9,11.1,13.7,11.1c8.2,0,14.7-3.7,19.7-10.8
			C455.3,346.2,455.3,346.4,455.3,346.4z M519.7,303.4c-2.8,0.7-7.5,1.2-13.1,1.2h-12.7l-2.8,10.6h4c1.5,0,1.9,0.9,1.1,3.9
			l-9.9,36.3h19.9c6.6-24.9,11.9-39.1,18.9-39.1c2.1,0,3.6,1.1,3.6,3.3c0,4.5-7.5,20.1-7.5,26.9c0,7.6,4.5,10.3,12.6,10.3
			c3.6,0,7.5-0.4,11-1.5l2.7-10.5c-0.9,0.3-1.7,0.5-2.7,0.5c-1.5,0-2.3-0.6-2.3-2.4c0-4.4,8-20.4,8-28.6c0-7.2-5.9-11.2-13.7-11.2
			c-8.6,0-15.1,3.9-20.1,11.3L519.7,303.4z M569.6,356.8c6.7,0,12.3-3.6,16.1-8.7c0.7,5.7,5,8.7,12.7,8.7c3.7,0,7.1-0.6,10.6-1.5
			l2.7-10.5c-1,0.3-1.9,0.5-2.8,0.5c-1.4,0-2.5-0.6-2.5-2.6c0-1.2,0.7-3.2,1.5-5.6l13.9-51.9c-2.8,0.7-7.5,1.4-13.1,1.4h-12.4
			l-2.8,10.6h2.9c1.8,0,2.1,0.9,1.2,4.1l-3.1,10.8c-1.7-5.6-6.5-9.2-12.9-9.2c-17.7,0-28.7,18.5-28.7,35.4
			C552.7,349.1,559.1,356.8,569.6,356.8z M578.3,344.6c-3.4,0-5.9-2.1-5.9-6.1c0-10.7,6.1-23.1,12.7-23.1c3.5,0,5.8,2.6,5.8,6
			C590.9,331.5,585,344.6,578.3,344.6z"/>
	</g>
</g>
</svg>
