<?xml version="1.0" encoding="utf-8"?>
<!-- Generator: Adobe Illustrator 15.0.0, SVG Export Plug-In . SVG Version: 6.00 Build 0)  -->
<!DOCTYPE svg PUBLIC "-//W3C//DTD SVG 1.1//EN" "http://www.w3.org/Graphics/SVG/1.1/DTD/svg11.dtd">
<svg version="1.1" id="Capa_1" xmlns="http://www.w3.org/2000/svg" xmlns:xlink="http://www.w3.org/1999/xlink" x="0px" y="0px"
	 width="308px" height="42px" viewBox="0 0 308 42" enable-background="new 0 0 308 42" xml:space="preserve">
<g>
	<path fill-rule="evenodd" clip-rule="evenodd" fill="#36619A" d="M0,39.193h3.975V3.768H0V2.681h27.112v10.484h-1.083v-0.723
		c0-4.7-3.255-8.674-8.679-8.674h-5.781v16.266h3.253c3.252,0,4.7-2.168,4.7-7.23v-0.362h1.083v16.632h-1.083v-1.086
		c0-3.615-1.447-6.868-4.7-6.868h-3.253v18.074h6.868c7.953,0,9.036-7.229,9.036-10.12v-0.726h0.727v11.928H0V39.193z"/>
	<path fill-rule="evenodd" clip-rule="evenodd" fill="#36619A" d="M32.534,39.193h3.977V3.768h-3.977V2.681h15.547v1.087h-4.34
		v35.426h5.783c8.316,0,10.484-4.339,10.484-10.846v-1.085h0.725v13.013h-28.2V39.193z"/>
	<path fill-rule="evenodd" clip-rule="evenodd" fill="#36619A" d="M74.472,39.191h3.975V3.768h-3.975V2.681h15.544v1.087h-4.337
		v35.424h5.781c8.319,0,10.484-4.337,10.484-10.844v-1.085h0.725v13.013H74.472V39.191z"/>
	<polygon fill-rule="evenodd" clip-rule="evenodd" fill="#36619A" points="107.006,39.191 110.981,39.191 110.981,3.768 
		107.006,3.768 107.006,2.681 122.189,2.681 122.189,3.768 118.213,3.768 118.213,39.191 122.189,39.191 122.189,40.275 
		107.006,40.275 	"/>
	<path fill-rule="evenodd" clip-rule="evenodd" fill="#36619A" d="M131.948,39.191h4.341V3.768h-1.808
		c-6.508,0-7.954,4.696-8.677,10.482h-1.084V2.681h30.366V14.25h-0.722c-0.724-5.786-2.17-10.482-8.678-10.482h-1.809v35.424h4.339
		v1.084h-16.269V39.191z"/>
	<path fill-rule="evenodd" clip-rule="evenodd" fill="#36619A" d="M173.525,1.959c9.035,0,15.182,9.037,15.182,19.521
		C189.068,31.602,181.836,41,173.525,41v-0.725c5.781,0,7.227-5.421,7.227-18.795c0-16.994-3.615-18.8-7.227-18.8V1.959z
		 M173.525,41c-8.678,0-15.549-9.398-15.188-19.52c0-10.484,6.145-19.521,15.188-19.521v0.722c-3.617,0-7.232,1.806-7.232,18.8
		c0,13.374,1.447,18.795,7.232,18.795V41z"/>
	<path fill-rule="evenodd" clip-rule="evenodd" fill="#36619A" d="M208.229,2.681c5.422,0,13.016,1.45,13.016,8.678
		c0,6.507-6.512,8.675-11.572,9.036v0.362c7.232,0.362,10.846,3.616,10.846,9.398c0,8.316,0.727,9.036,2.535,9.036
		c0.721,0,1.441-0.359,1.803-0.72l0.363,0.72c-1.811,1.447-3.975,1.809-5.781,1.809c-5.063,0-6.51-3.975-6.51-9.76
		c0-7.23-1.449-9.4-4.699-9.76v-1.447c3.975-0.724,5.059-3.253,4.699-9.038c0-6.145-1.449-7.229-4.699-7.229V2.681z M192.322,39.191
		h3.617V3.768h-3.617V2.681h14.824c0.357,0,0.723,0,1.082,0v1.087c-0.359,0-0.725,0-1.082,0h-3.619v16.627h2.891
		c0.729-0.361,1.451-0.361,1.811-0.361v1.447c-0.725-0.361-1.443-0.361-2.168-0.361h-2.533v18.072h3.977v1.084h-15.182V39.191z"/>
	<path fill-rule="evenodd" clip-rule="evenodd" fill="#36619A" d="M238.594,10.272l2.529-8.313h0.727l13.016,37.232h2.166v1.084
		h-14.1v-1.084h3.615l-3.25-10.844h-4.703v-1.085h4.338l-4.338-13.376l0,0V10.272z M226.305,39.191h0.361
		c1.807,0,2.891-1.444,3.254-3.251l8.674-25.668v3.614l-4.338,13.376h4.338v1.085h-4.701l-2.529,7.23c0,0.723,0,1.085,0,1.81
		c0,1.804,1.086,1.804,2.17,1.804h1.447v1.084h-8.676V39.191z"/>
	<path fill-rule="evenodd" clip-rule="evenodd" fill="#36619A" d="M259.201,39.191h3.613V3.768h-3.613V2.681h15.547v1.087h-4.34
		v35.424h5.424c8.676,0,10.48-4.337,10.48-10.844v-1.085h1.088v13.013h-28.199V39.191z"/>
</g>
</svg>
